<svg width="18" height="16" viewBox="0 0 18 16" fill="none" xmlns="http://www.w3.org/2000/svg">
<path d="M-0.000101089 8.00042C-0.000101089 8.19933 0.0789165 8.3901 0.219568 8.53075C0.36022 8.6714 0.550987 8.75042 0.749899 8.75042H15.4396L9.96927 14.2198C9.89959 14.2895 9.84431 14.3722 9.8066 14.4632C9.76889 14.5543 9.74948 14.6519 9.74948 14.7504C9.74948 14.849 9.76889 14.9465 9.8066 15.0376C9.84431 15.1286 9.89959 15.2114 9.96927 15.281C10.039 15.3507 10.1217 15.406 10.2127 15.4437C10.3038 15.4814 10.4014 15.5008 10.4999 15.5008C10.5984 15.5008 10.696 15.4814 10.7871 15.4437C10.8781 15.406 10.9608 15.3507 11.0305 15.281L17.7805 8.53104C17.8503 8.46139 17.9056 8.37867 17.9433 8.28762C17.9811 8.19657 18.0005 8.09898 18.0005 8.00042C18.0005 7.90186 17.9811 7.80426 17.9433 7.71321C17.9056 7.62216 17.8503 7.53945 17.7805 7.46979L11.0305 0.719792C10.8898 0.579062 10.6989 0.5 10.4999 0.5C10.3009 0.5 10.11 0.579062 9.96927 0.719792C9.82854 0.860523 9.74948 1.05139 9.74948 1.25042C9.74948 1.44944 9.82854 1.64031 9.96927 1.78104L15.4396 7.25042H0.749899C0.550987 7.25042 0.36022 7.32943 0.219568 7.47009C0.0789165 7.61074 -0.000101089 7.8015 -0.000101089 8.00042Z" fill="#6A727D"/>
</svg>
