<svg width="18" height="18" viewBox="0 0 18 18" fill="none" xmlns="http://www.w3.org/2000/svg">
<path d="M9 0.875C7.39303 0.875 5.82214 1.35152 4.486 2.24431C3.14985 3.1371 2.10844 4.40605 1.49348 5.8907C0.87852 7.37535 0.717618 9.00901 1.03112 10.5851C1.34463 12.1612 2.11846 13.6089 3.25476 14.7452C4.39106 15.8815 5.8388 16.6554 7.4149 16.9689C8.99099 17.2824 10.6247 17.1215 12.1093 16.5065C13.594 15.8916 14.8629 14.8502 15.7557 13.514C16.6485 12.1779 17.125 10.607 17.125 9C17.1227 6.84581 16.266 4.78051 14.7427 3.25727C13.2195 1.73403 11.1542 0.877275 9 0.875ZM12.5672 9.44219L10.0672 11.9422C9.94992 12.0595 9.79086 12.1253 9.625 12.1253C9.45915 12.1253 9.30009 12.0595 9.18282 11.9422C9.06554 11.8249 8.99966 11.6659 8.99966 11.5C8.99966 11.3341 9.06554 11.1751 9.18282 11.0578L10.6164 9.625H5.875C5.70924 9.625 5.55027 9.55915 5.43306 9.44194C5.31585 9.32473 5.25 9.16576 5.25 9C5.25 8.83424 5.31585 8.67527 5.43306 8.55806C5.55027 8.44085 5.70924 8.375 5.875 8.375H10.6164L9.18282 6.94219C9.06554 6.82491 8.99966 6.66585 8.99966 6.5C8.99966 6.33415 9.06554 6.17509 9.18282 6.05781C9.30009 5.94054 9.45915 5.87465 9.625 5.87465C9.79086 5.87465 9.94992 5.94054 10.0672 6.05781L12.5672 8.55781C12.6253 8.61586 12.6714 8.68479 12.7029 8.76066C12.7343 8.83654 12.7505 8.91787 12.7505 9C12.7505 9.08213 12.7343 9.16346 12.7029 9.23934C12.6714 9.31521 12.6253 9.38414 12.5672 9.44219Z" fill="url(#paint0_linear_2765_1284)"/>
<defs>
<linearGradient id="paint0_linear_2765_1284" x1="9" y1="-6.41667" x2="9" y2="17.125" gradientUnits="userSpaceOnUse">
<stop stop-color="#FBBC00"/>
<stop offset="0.667778" stop-color="#EBB000"/>
</linearGradient>
</defs>
</svg>
