<svg width="18" height="16" viewBox="0 0 18 16" fill="none" xmlns="http://www.w3.org/2000/svg">
<path d="M18.0001 8.00042C18.0001 8.19933 17.9211 8.3901 17.7804 8.53075C17.6398 8.6714 17.449 8.75042 17.2501 8.75042H2.56041L8.03073 14.2198C8.10041 14.2895 8.15569 14.3722 8.1934 14.4632C8.23111 14.5543 8.25052 14.6519 8.25052 14.7504C8.25052 14.849 8.23111 14.9465 8.1934 15.0376C8.15569 15.1286 8.10041 15.2114 8.03073 15.281C7.96104 15.3507 7.87832 15.406 7.78727 15.4437C7.69623 15.4814 7.59865 15.5008 7.5001 15.5008C7.40156 15.5008 7.30397 15.4814 7.21293 15.4437C7.12188 15.406 7.03916 15.3507 6.96948 15.281L0.219477 8.53104C0.149744 8.46139 0.0944251 8.37867 0.0566819 8.28762C0.0189387 8.19657 -0.000488281 8.09898 -0.000488281 8.00042C-0.000488281 7.90186 0.0189387 7.80426 0.0566819 7.71321C0.0944251 7.62216 0.149744 7.53945 0.219477 7.46979L6.96948 0.719792C7.11021 0.579062 7.30108 0.5 7.5001 0.5C7.69912 0.5 7.89 0.579062 8.03073 0.719792C8.17146 0.860523 8.25052 1.05139 8.25052 1.25042C8.25052 1.44944 8.17146 1.64031 8.03073 1.78104L2.56041 7.25042H17.2501C17.449 7.25042 17.6398 7.32943 17.7804 7.47009C17.9211 7.61074 18.0001 7.8015 18.0001 8.00042Z" fill="#6A727D"/>
</svg>
