<svg width="24" height="24" viewBox="0 0 24 24" fill="none" xmlns="http://www.w3.org/2000/svg">
<path d="M2.85714 0C1.28 0 0 1.28 0 2.85714V21.1429C0 22.72 1.28 24 2.85714 24H21.1429C22.72 24 24 22.72 24 21.1429V2.85714C24 1.28 22.72 0 21.1429 0H2.85714ZM4.57143 8H8.41741C8.83455 8 11.0915 7.97161 11.0915 10.0402C11.0915 11.1373 10.3427 11.5084 10.0056 11.6741C10.5084 11.8341 11.4286 12.2971 11.4286 13.7143C11.4286 15.9029 8.91973 16 8.58259 16H4.57143V8ZM14.2857 8H18.2857V9.14286H14.2857V8ZM6.28571 9.38839V11.2634H8.12612C8.37755 11.2634 9.21094 11.1257 9.21094 10.2857C9.21094 9.44571 8.12554 9.38839 7.95982 9.38839H6.28571ZM16.4174 9.71429C18.646 9.71429 19.2512 11.4513 19.3426 11.8627C19.4283 12.2799 19.4286 12.6457 19.4286 13.1429H14.9141C14.9141 13.64 15.1775 14.76 16.5089 14.76C16.8632 14.76 17.1254 14.6746 17.394 14.5089C17.6568 14.3432 17.7491 14.1825 17.8348 14.0167H19.3371C19.0742 14.6739 18.72 15.1719 18.1886 15.5033C17.6572 15.8348 17.04 16 16.3315 16C15.8858 16 15.4457 15.9146 15 15.7489C14.6457 15.5832 14.2919 15.3372 14.029 15.0915C13.7662 14.8401 13.589 14.5085 13.4118 14.0971C13.2347 13.7657 13.1429 13.2686 13.1429 12.8571C13.1429 12.4457 13.3088 9.71429 16.4174 9.71429ZM16.4174 10.8739C15.126 10.8739 14.9141 12.1142 14.9141 12.1942H17.7489C17.6575 11.7828 17.286 10.8739 16.4174 10.8739ZM6.28571 12.4063V14.6116H8.20089C8.36604 14.6116 9.53125 14.5605 9.53125 13.5491C9.53125 12.5434 8.61575 12.4063 8.20089 12.4063H6.28571Z" fill="url(#paint0_linear_2858_2055)"/>
<defs>
<linearGradient id="paint0_linear_2858_2055" x1="12" y1="0" x2="12" y2="24" gradientUnits="userSpaceOnUse">
<stop stop-color="#2A2E33" stop-opacity="0.62"/>
<stop offset="1"/>
</linearGradient>
</defs>
</svg>
