<svg width="14" height="14" viewBox="0 0 14 14" fill="none" xmlns="http://www.w3.org/2000/svg">
<path d="M7 0.5C5.71443 0.5 4.45772 0.881218 3.3888 1.59545C2.31988 2.30968 1.48676 3.32484 0.994786 4.51256C0.502816 5.70028 0.374095 7.00721 0.624899 8.26809C0.875703 9.52896 1.49477 10.6872 2.40381 11.5962C3.31285 12.5052 4.47104 13.1243 5.73192 13.3751C6.99279 13.6259 8.29973 13.4972 9.48745 13.0052C10.6752 12.5132 11.6903 11.6801 12.4046 10.6112C13.1188 9.54229 13.5 8.28558 13.5 7C13.4982 5.27665 12.8128 3.62441 11.5942 2.40582C10.3756 1.18722 8.72335 0.50182 7 0.5ZM9.85375 7.35375L7.85375 9.35375C7.75993 9.44757 7.63269 9.50028 7.5 9.50028C7.36732 9.50028 7.24007 9.44757 7.14625 9.35375C7.05243 9.25993 6.99973 9.13268 6.99973 9C6.99973 8.86732 7.05243 8.74007 7.14625 8.64625L8.29313 7.5H4.5C4.3674 7.5 4.24022 7.44732 4.14645 7.35355C4.05268 7.25979 4 7.13261 4 7C4 6.86739 4.05268 6.74022 4.14645 6.64645C4.24022 6.55268 4.3674 6.5 4.5 6.5H8.29313L7.14625 5.35375C7.05243 5.25993 6.99973 5.13268 6.99973 5C6.99973 4.86732 7.05243 4.74007 7.14625 4.64625C7.24007 4.55243 7.36732 4.49972 7.5 4.49972C7.63269 4.49972 7.75993 4.55243 7.85375 4.64625L9.85375 6.64625C9.90024 6.69269 9.93712 6.74783 9.96228 6.80853C9.98745 6.86923 10.0004 6.93429 10.0004 7C10.0004 7.06571 9.98745 7.13077 9.96228 7.19147C9.93712 7.25217 9.90024 7.30731 9.85375 7.35375Z" fill="#2A2E33"/>
</svg>
